<svg xmlns="http://www.w3.org/2000/svg" fill="none" viewBox="0 0 256 256"><mask id="a" width="256" height="256" x="0" y="0" maskUnits="userSpaceOnUse" style="mask-type:alpha"><path fill="#fff" d="M0 0h256v256H0z"/></mask><g mask="url(#a)"><path fill="#111" d="M-.296 10.24C-.296 4.585 4.29 0 9.944 0h235.52c5.656 0 10.24 4.585 10.24 10.24v235.52c0 5.655-4.584 10.24-10.24 10.24H9.944c-5.655 0-10.24-4.585-10.24-10.24V10.24Z"/><path fill="#FCEBD8" d="m279.269 249.611-44.688-44.688a15.895 15.895 0 0 0-12.186-4.598l-18.774-18.773a90.092 90.092 0 0 0 16.326-51.76c0-49.995-40.672-90.672-90.672-90.672s-90.662 40.677-90.662 90.677c0 50 40.672 90.672 90.672 90.672a90.13 90.13 0 0 0 51.76-16.325l18.774 18.773a15.884 15.884 0 0 0 4.597 12.182l44.688 44.688a15.947 15.947 0 0 0 11.317 4.677c4.102 0 8.192-1.557 11.312-4.677l7.542-7.542a16.015 16.015 0 0 0 0-22.629l-.006-.005ZM49.279 129.797c0-44.112 35.889-80 80.001-80s80 35.888 80 80-35.888 80-80 80-80-35.888-80-80Zm147.66 60.155 14.992 14.992-7.499 7.499-14.992-14.992a90.554 90.554 0 0 0 7.499-7.499Zm74.784 74.741-7.542 7.542a5.354 5.354 0 0 1-7.546 0l-44.688-44.688a5.345 5.345 0 0 1 0-7.547l7.541-7.541a5.347 5.347 0 0 1 7.547 0l44.688 44.688a5.343 5.343 0 0 1 0 7.546Z"/><path fill="#FCEBD8" d="M129.28 60.459c-38.23 0-69.333 31.104-69.333 69.333s31.104 69.333 69.333 69.333 69.333-31.104 69.333-69.333c0-38.23-31.104-69.333-69.333-69.333Zm-32 118.442v-6.442c0-14.704 11.963-26.667 26.667-26.667h10.666c14.704 0 26.667 11.963 26.667 26.667v6.442c-9.211 6.027-20.192 9.558-32 9.558s-22.789-3.536-32-9.558Zm32-49.109c-8.821 0-16-7.179-16-16s7.179-16 16-16 16 7.179 16 16-7.179 16-16 16Zm42.544 40.277a37.354 37.354 0 0 0-28.288-33.818 26.618 26.618 0 0 0 12.411-22.454c0-14.704-11.963-26.666-26.667-26.666-14.704 0-26.667 11.962-26.667 26.666a26.608 26.608 0 0 0 3.322 12.821 26.607 26.607 0 0 0 9.089 9.633 37.348 37.348 0 0 0-28.288 33.818 58.399 58.399 0 0 1-16.123-40.277c0-32.347 26.32-58.667 58.667-58.667s58.667 26.32 58.667 58.667c0 15.595-6.16 29.755-16.123 40.277Z"/></g></svg>